# xmcd
#
# Track frame offsets:
#	150
#	11811
#	30913
#	52989
#	74038
#	84251
#	96631
#	111665
#	135798
#	146606
#	167751
#	188867
#
# Disc length: 2697 seconds
#
# Revision: 0
# Processed by: cddbd v1.4PL0 Copyright (c) Steve Scherf et al.
# Submitted via: audiograbber 1.82.02
#
DISCID=a40a870c
DTITLE=Various Artist - Bossa Nova
DYEAR=1900
DGENRE=
TTITLE0=Chega de Saudade - Os Cariocas
TTITLE1=Sabiá - Cynara e Cibele
TTITLE2=Vivo Sozinho- Triste- Meditação - Emílio Santiago
TTITLE3=Eu Sei Que Vou Te Amar- O Bem e o Mal - Nana Caymmi
TTITLE4=O Barquinho - Maysa
TTITLE5=Fotografia - Lana Bittencourt
TTITLE6=Samba de Uma Nota Só- Desafinado - Pery Ribeiro, W. Sá e O. Milito
TTITLE7=Garota de Ipanema- Rio- Ela é Carioca - Leni Andrade
TTITLE8=Cartão de Visita - Carlos Lyra
TTITLE9=Corcovado- Insensatez - Nara Leão
TTITLE10=Nós e o Mar- Wave - Guilherme Arantes
TTITLE11=Você e Eu- Se é Tarde me Perdoa- Saudade fez um Samba - Carlos Lyra
EXTD=
EXTT0=
EXTT1=
EXTT2=
EXTT3=
EXTT4=
EXTT5=
EXTT6=
EXTT7=
EXTT8=
EXTT9=
EXTT10=
EXTT11=
PLAYORDER=
